<?xml version="1.0" standalone="no"?>
<!DOCTYPE svg PUBLIC "-//W3C//DTD SVG 20010904//EN"
 "http://www.w3.org/TR/2001/REC-SVG-20010904/DTD/svg10.dtd">
<svg version="1.0" xmlns="http://www.w3.org/2000/svg"
 width="512.000000pt" height="512.000000pt" viewBox="0 0 512.000000 512.000000"
 preserveAspectRatio="xMidYMid meet">
<metadata>
Created by potrace 1.14, written by Peter Selinger 2001-2017
</metadata>
<g transform="translate(0.000000,512.000000) scale(0.100000,-0.100000)"
fill="#000000" stroke="none">
<path d="M2364 5109 c-786 -57 -1510 -486 -1947 -1154 -352 -539 -486 -1191
-376 -1836 117 -688 528 -1314 1119 -1702 130 -85 410 -224 550 -272 764 -263
1602 -159 2263 281 976 650 1385 1861 1006 2973 -51 148 -187 426 -276 561
-389 592 -1016 1004 -1705 1119 -216 37 -415 46 -634 30z m-1229 -1180 c144
-67 241 -245 299 -547 19 -99 55 -361 56 -409 0 -4 28 44 61 107 223 423 433
621 644 608 189 -12 306 -171 369 -498 9 -47 19 -96 22 -109 4 -19 19 7 69
118 181 403 350 638 519 721 161 80 341 39 450 -101 100 -128 172 -376 207
-716 7 -68 16 -123 19 -123 3 0 33 54 68 119 197 371 396 571 581 588 55 5 64
3 86 -17 54 -51 20 -121 -65 -135 -159 -26 -317 -218 -538 -652 l-113 -222 21
-263 c30 -389 52 -554 95 -715 42 -159 86 -225 159 -236 65 -10 116 -73 116
-142 0 -45 -20 -85 -60 -119 -27 -22 -41 -26 -95 -26 -186 0 -322 141 -400
415 -29 100 -70 330 -80 445 -4 41 -9 81 -11 89 -3 8 -36 -41 -74 -108 -109
-193 -178 -289 -280 -391 -104 -105 -165 -141 -265 -159 -49 -9 -72 -8 -120 4
-178 47 -272 215 -340 609 l-7 39 -52 -119 c-84 -189 -194 -400 -267 -509 -81
-121 -194 -232 -281 -277 -54 -27 -76 -32 -155 -36 -86 -4 -96 -2 -157 26 -88
41 -146 103 -201 215 -71 146 -116 333 -146 615 l-12 111 -81 -143 c-193 -339
-355 -502 -534 -536 -32 -6 -61 -6 -76 0 -30 11 -56 47 -56 78 0 35 43 72 83
72 53 0 136 48 207 120 103 104 220 290 365 580 l67 135 -6 95 c-42 615 -87
905 -164 1055 -27 54 -49 72 -101 84 -132 29 -163 193 -51 269 31 21 44 23
105 19 45 -2 88 -13 120 -28z"/>
<path d="M3279 3635 c-46 -34 -79 -74 -148 -177 -103 -153 -202 -363 -381
-803 l-97 -241 13 -125 c38 -367 102 -588 191 -656 48 -37 118 -38 186 -4 119
61 274 274 445 609 100 195 102 202 97 254 -3 29 -12 145 -20 258 -37 490 -92
773 -171 877 -31 41 -66 43 -115 8z"/>
<path d="M2130 3526 c-59 -15 -127 -63 -185 -128 -100 -114 -277 -408 -388
-648 l-39 -85 6 -120 c33 -613 112 -1016 210 -1080 23 -15 27 -15 63 4 138 70
300 363 568 1029 l101 252 -13 128 c-29 272 -74 460 -135 562 -49 81 -107 108
-188 86z"/>
</g>
</svg>
